M48
;Layer_Color=9474304
;FILE_FORMAT=4:4
METRIC,LZ
;TYPE=PLATED
T1F00S00C0.3000
T2F00S00C0.4000
T4F00S00C1.0000
T5F00S00C2.7000
T6F00S00C3.4000
;TYPE=NON_PLATED
T7F00S00C0.6500
%
T01
X00395Y00025
X0041Y00055
X0044
X0041Y00175
X00425Y00265
X00455
X0044Y00295
X0038
X0035
X00365Y00325
X00335
X00305
X00275
X0029Y00355
X0032
X0035
X0038
X0026
X0023
X002
X0017
X0014
X00155Y00325
X00185
X00215
X0023Y00295
X002
X00215Y00265
X00245
X00275
X0026Y00235
X0023
X002
X0017
X00185Y00265
Y00205
X00215
X00245
X00275
X00335
Y00265
Y00085
X0035Y00055
X0038
X00365Y00025
X00335
X00305
X00275
X00245
X00215
X00185
X00155
X00125
X00095
X00065
X00035
X0005Y-00005
X0008
X0014
X002
X0023
X0026
Y00055
X0023
X002
X00275Y00085
X0026Y00115
X00185Y00145
X00129Y00153
X0011Y00115
X0005
X0002
X00035Y00085
X00005
X0002Y00055
X00005Y00145
X0002Y00175
X00005Y00205
X0002Y00235
X0005
X0008
Y00295
X0005
X0002
X00035Y00325
X00065
X0008Y00355
X0005
X00035Y00265
X00005
X00155Y00205
X0015Y00195
X-0001Y00175
Y00235
Y00295
Y00115
Y00055
T02
X00398Y00076
X00397Y00093
X00462Y00061
X003955Y003125
X00378Y00249
X00365Y00252
X00298Y00223
X00306Y00214
X00285Y0019
X00293115Y00150615
X00308Y00132
X00295Y001125
X00305Y00087
X00285Y00049
X00267Y00123
X0021Y001225
X00185Y00131
X001725Y0014
X0016Y001
X00133Y00111
X0011Y00151
Y00198
X00055Y00199
X0006Y00152
X00148Y00176
X00131Y00308
X00203Y00079
T04
X00294201Y-0
X00319601
X00345Y0
X003704
T05
X0011Y0
X0017
X00105Y00335
T06
X00445Y0
Y0035
X0
Y0
T07
X00027187Y00146099
Y00203899
M30
