G04*
G04 #@! TF.GenerationSoftware,Altium Limited,Altium Designer,20.0.7 (75)*
G04*
G04 Layer_Color=128*
%FSLAX44Y44*%
%MOMM*%
G71*
G01*
G75*
G36*
X6410Y34476D02*
X8507Y33950D01*
X2220Y21960D01*
X-2320D01*
X-8596Y33928D01*
Y33928D01*
X-8596D01*
X-6499Y34459D01*
X-2208Y34997D01*
X2117Y35003D01*
X6410Y34476D01*
D02*
G37*
G36*
X17913Y30069D02*
X19771Y28962D01*
X23185Y26308D01*
X26248Y23254D01*
X28911Y19846D01*
X30022Y17991D01*
X17098Y13958D01*
X13888Y17169D01*
X17913Y30069D01*
X17913Y30069D01*
Y30069D01*
D02*
G37*
G36*
X-13958Y17098D02*
X-17169Y13888D01*
X-30069Y17913D01*
X-30069Y17913D01*
X-28962Y19771D01*
X-26308Y23185D01*
X-23254Y26248D01*
X-19846Y28911D01*
X-17991Y30022D01*
X-13958Y17098D01*
D02*
G37*
G36*
X34459Y6499D02*
X34997Y2208D01*
X35003Y-2117D01*
X34476Y-6410D01*
X33950Y-8507D01*
X21960Y-2220D01*
Y2320D01*
X33928Y8596D01*
X33928D01*
X34459Y6499D01*
D02*
G37*
G36*
X-21960Y2220D02*
Y-2320D01*
X-33928Y-8596D01*
X-33928D01*
X-33928Y-8596D01*
X-34459Y-6499D01*
X-34997Y-2208D01*
X-35003Y2117D01*
X-34476Y6410D01*
X-33950Y8507D01*
X-21960Y2220D01*
D02*
G37*
G36*
X30069Y-17913D02*
X30069Y-17913D01*
X30069Y-17913D01*
X28962Y-19771D01*
X26308Y-23186D01*
X23254Y-26248D01*
X19846Y-28911D01*
X17991Y-30022D01*
X13958Y-17098D01*
X17169Y-13888D01*
X30069Y-17913D01*
D02*
G37*
G36*
X-13888Y-17169D02*
X-17913Y-30069D01*
X-17913Y-30069D01*
X-17913D01*
X-19771Y-28962D01*
X-23186Y-26308D01*
X-26248Y-23254D01*
X-28911Y-19846D01*
X-30022Y-17991D01*
X-17098Y-13958D01*
X-13888Y-17169D01*
D02*
G37*
G36*
X8596Y-33928D02*
Y-33928D01*
Y-33928D01*
X6499Y-34459D01*
X2208Y-34997D01*
X-2117Y-35003D01*
X-6410Y-34476D01*
X-8507Y-33950D01*
X-2220Y-21960D01*
X2320D01*
X8596Y-33928D01*
D02*
G37*
G36*
X6410Y384476D02*
X8507Y383950D01*
X2220Y371960D01*
X-2320D01*
X-8596Y383928D01*
Y383928D01*
X-8596D01*
X-6499Y384459D01*
X-2208Y384997D01*
X2117Y385003D01*
X6410Y384476D01*
D02*
G37*
G36*
X17913Y380069D02*
X19771Y378962D01*
X23185Y376308D01*
X26248Y373254D01*
X28911Y369846D01*
X30022Y367991D01*
X17098Y363958D01*
X13888Y367169D01*
X17913Y380069D01*
X17913Y380069D01*
Y380069D01*
D02*
G37*
G36*
X-13958Y367098D02*
X-17169Y363888D01*
X-30069Y367913D01*
X-30069Y367913D01*
X-28962Y369771D01*
X-26308Y373185D01*
X-23254Y376248D01*
X-19846Y378910D01*
X-17991Y380022D01*
X-13958Y367098D01*
D02*
G37*
G36*
X34459Y356499D02*
X34997Y352208D01*
X35003Y347883D01*
X34476Y343590D01*
X33950Y341493D01*
X21960Y347780D01*
Y352320D01*
X33928Y358596D01*
X33928D01*
X34459Y356499D01*
D02*
G37*
G36*
X-21960Y352220D02*
Y347680D01*
X-33928Y341404D01*
X-33928D01*
X-33928Y341404D01*
X-34459Y343501D01*
X-34997Y347792D01*
X-35003Y352117D01*
X-34476Y356410D01*
X-33950Y358507D01*
X-21960Y352220D01*
D02*
G37*
G36*
X30069Y332087D02*
X30069Y332087D01*
X30069Y332087D01*
X28962Y330229D01*
X26308Y326815D01*
X23254Y323752D01*
X19846Y321090D01*
X17991Y319978D01*
X13958Y332902D01*
X17169Y336112D01*
X30069Y332087D01*
D02*
G37*
G36*
X-13888Y332831D02*
X-17913Y319931D01*
X-17913Y319931D01*
X-17913D01*
X-19771Y321038D01*
X-23186Y323692D01*
X-26248Y326746D01*
X-28911Y330154D01*
X-30022Y332009D01*
X-17098Y336042D01*
X-13888Y332831D01*
D02*
G37*
G36*
X8596Y316072D02*
Y316072D01*
Y316072D01*
X6499Y315541D01*
X2208Y315003D01*
X-2117Y314997D01*
X-6410Y315524D01*
X-8507Y316050D01*
X-2220Y328040D01*
X2320D01*
X8596Y316072D01*
D02*
G37*
G36*
X451410Y34476D02*
X453507Y33950D01*
X447220Y21960D01*
X442680D01*
X436404Y33928D01*
Y33928D01*
X436404D01*
X438501Y34459D01*
X442792Y34997D01*
X447117Y35003D01*
X451410Y34476D01*
D02*
G37*
G36*
X462913Y30069D02*
X464771Y28962D01*
X468185Y26308D01*
X471248Y23254D01*
X473910Y19846D01*
X475022Y17991D01*
X462098Y13958D01*
X458888Y17169D01*
X462913Y30069D01*
X462913Y30069D01*
Y30069D01*
D02*
G37*
G36*
X431042Y17098D02*
X427831Y13888D01*
X414931Y17913D01*
X414931Y17913D01*
X416038Y19771D01*
X418692Y23185D01*
X421746Y26248D01*
X425154Y28911D01*
X427009Y30022D01*
X431042Y17098D01*
D02*
G37*
G36*
X479459Y6499D02*
X479997Y2208D01*
X480003Y-2117D01*
X479476Y-6410D01*
X478950Y-8507D01*
X466960Y-2220D01*
Y2320D01*
X478928Y8596D01*
X478928D01*
X479459Y6499D01*
D02*
G37*
G36*
X423040Y2220D02*
Y-2320D01*
X411072Y-8596D01*
X411072D01*
X411072Y-8596D01*
X410541Y-6499D01*
X410003Y-2208D01*
X409997Y2117D01*
X410524Y6410D01*
X411050Y8507D01*
X423040Y2220D01*
D02*
G37*
G36*
X475069Y-17913D02*
X475069Y-17913D01*
X475069Y-17913D01*
X473962Y-19771D01*
X471308Y-23186D01*
X468254Y-26248D01*
X464846Y-28911D01*
X462991Y-30022D01*
X458958Y-17098D01*
X462169Y-13888D01*
X475069Y-17913D01*
D02*
G37*
G36*
X431112Y-17169D02*
X427087Y-30069D01*
X427087Y-30069D01*
X427087D01*
X425229Y-28962D01*
X421815Y-26308D01*
X418752Y-23254D01*
X416090Y-19846D01*
X414978Y-17991D01*
X427902Y-13958D01*
X431112Y-17169D01*
D02*
G37*
G36*
X453596Y-33928D02*
Y-33928D01*
Y-33928D01*
X451499Y-34459D01*
X447208Y-34997D01*
X442883Y-35003D01*
X438590Y-34476D01*
X436493Y-33950D01*
X442780Y-21960D01*
X447320D01*
X453596Y-33928D01*
D02*
G37*
G36*
X451410Y384476D02*
X453507Y383950D01*
X447220Y371960D01*
X442680D01*
X436404Y383928D01*
Y383928D01*
X436404D01*
X438501Y384459D01*
X442792Y384997D01*
X447117Y385003D01*
X451410Y384476D01*
D02*
G37*
G36*
X462913Y380069D02*
X464771Y378962D01*
X468185Y376308D01*
X471248Y373254D01*
X473910Y369846D01*
X475022Y367991D01*
X462098Y363958D01*
X458888Y367169D01*
X462913Y380069D01*
X462913Y380069D01*
Y380069D01*
D02*
G37*
G36*
X431042Y367098D02*
X427831Y363888D01*
X414931Y367913D01*
X414931Y367913D01*
X416038Y369771D01*
X418692Y373185D01*
X421746Y376248D01*
X425154Y378910D01*
X427009Y380022D01*
X431042Y367098D01*
D02*
G37*
G36*
X479459Y356499D02*
X479997Y352208D01*
X480003Y347883D01*
X479476Y343590D01*
X478950Y341493D01*
X466960Y347780D01*
Y352320D01*
X478928Y358596D01*
X478928D01*
X479459Y356499D01*
D02*
G37*
G36*
X423040Y352220D02*
Y347680D01*
X411072Y341404D01*
X411072D01*
X411072Y341404D01*
X410541Y343501D01*
X410003Y347792D01*
X409997Y352117D01*
X410524Y356410D01*
X411050Y358507D01*
X423040Y352220D01*
D02*
G37*
G36*
X475069Y332087D02*
X475069Y332087D01*
X475069Y332087D01*
X473962Y330229D01*
X471308Y326815D01*
X468254Y323752D01*
X464846Y321090D01*
X462991Y319978D01*
X458958Y332902D01*
X462169Y336112D01*
X475069Y332087D01*
D02*
G37*
G36*
X431112Y332831D02*
X427087Y319931D01*
X427087Y319931D01*
X427087D01*
X425229Y321038D01*
X421815Y323692D01*
X418752Y326746D01*
X416090Y330154D01*
X414978Y332009D01*
X427902Y336042D01*
X431112Y332831D01*
D02*
G37*
G36*
X453596Y316072D02*
Y316072D01*
Y316072D01*
X451499Y315541D01*
X447208Y315003D01*
X442883Y314997D01*
X438590Y315524D01*
X436493Y316050D01*
X442780Y328040D01*
X447320D01*
X453596Y316072D01*
D02*
G37*
M02*
