G04*
G04 #@! TF.GenerationSoftware,Altium Limited,Altium Designer,20.0.7 (75)*
G04*
G04 Layer_Physical_Order=4*
G04 Layer_Color=16711680*
%FSLAX44Y44*%
%MOMM*%
G71*
G01*
G75*
%ADD12C,0.2000*%
%ADD60C,0.1820*%
%ADD61C,0.3000*%
%ADD62C,0.5000*%
%ADD65C,1.0000*%
%ADD66C,3.8000*%
%ADD67C,1.5000*%
%ADD68R,1.5000X1.5000*%
%ADD69C,0.6500*%
%ADD70O,1.9000X1.0000*%
%ADD71O,2.1000X1.0000*%
%ADD72C,7.0000*%
%ADD73C,0.5000*%
%ADD74C,0.8000*%
%ADD75C,0.6000*%
G36*
X428394Y383754D02*
X427905Y383552D01*
X422866Y380464D01*
X418373Y376627D01*
X414536Y372134D01*
X411448Y367095D01*
X409187Y361636D01*
X407808Y355891D01*
X407444Y351270D01*
X445000D01*
Y350000D01*
X446270D01*
Y312444D01*
X450891Y312808D01*
X456636Y314187D01*
X462095Y316448D01*
X467134Y319536D01*
X471627Y323373D01*
X475464Y327866D01*
X478552Y332905D01*
X478754Y333394D01*
X480000Y333146D01*
Y242393D01*
X426007D01*
X425050Y241997D01*
X424654Y241040D01*
Y109154D01*
X424129Y108768D01*
X423481Y108531D01*
X401872Y130140D01*
Y312500D01*
X401387Y314939D01*
X400006Y317006D01*
X397939Y318387D01*
X395500Y318873D01*
X393061Y318387D01*
X390994Y317006D01*
X389613Y314939D01*
X389128Y312500D01*
Y127500D01*
X389613Y125061D01*
X390994Y122994D01*
X454790Y59198D01*
X446416Y50823D01*
X289990D01*
X289945Y51048D01*
X288785Y52785D01*
X288727Y52824D01*
Y55167D01*
X288436Y56630D01*
X287607Y57871D01*
X270691Y74787D01*
X270099Y75183D01*
X269804Y75624D01*
Y118559D01*
X270785Y119215D01*
X271945Y120952D01*
X272353Y123000D01*
X271945Y125048D01*
X270785Y126785D01*
X269048Y127945D01*
X267000Y128353D01*
X264952Y127945D01*
X263215Y126785D01*
X262055Y125048D01*
X261647Y123000D01*
X262055Y120952D01*
X263215Y119215D01*
X264196Y118559D01*
Y82942D01*
X263023Y82455D01*
X253775Y91704D01*
X252534Y92532D01*
X251071Y92823D01*
X143584D01*
X136823Y99584D01*
Y107177D01*
X165000D01*
X166463Y107468D01*
X167704Y108296D01*
X185068Y125661D01*
X187048Y126055D01*
X188785Y127215D01*
X189945Y128952D01*
X190353Y131000D01*
X189945Y133048D01*
X188785Y134785D01*
X187048Y135945D01*
X185000Y136353D01*
X182952Y135945D01*
X181215Y134785D01*
X180055Y133048D01*
X179661Y131068D01*
X163416Y114824D01*
X136728D01*
X135048Y115945D01*
X133000Y116353D01*
X130952Y115945D01*
X129215Y114785D01*
X128055Y113048D01*
X127647Y111000D01*
X128055Y108952D01*
X129177Y107273D01*
Y98000D01*
X129468Y96537D01*
X130296Y95296D01*
X139296Y86296D01*
X140537Y85468D01*
X142000Y85176D01*
X142000Y85176D01*
X200478D01*
X200911Y84001D01*
X200893Y83906D01*
X199215Y82785D01*
X198055Y81048D01*
X197647Y79000D01*
X198055Y76952D01*
X199215Y75215D01*
X200952Y74055D01*
X203000Y73647D01*
X205048Y74055D01*
X206785Y75215D01*
X207945Y76952D01*
X208353Y79000D01*
X207945Y81048D01*
X206785Y82785D01*
X205107Y83906D01*
X205089Y84001D01*
X205522Y85176D01*
X249487D01*
X264296Y70367D01*
X264888Y69972D01*
X265284Y69380D01*
X281080Y53583D01*
Y52583D01*
X280055Y51048D01*
X279647Y49000D01*
X280055Y46952D01*
X281215Y45215D01*
X282952Y44055D01*
X284932Y43661D01*
X290377Y38215D01*
Y8750D01*
X285451D01*
Y-8750D01*
X302951D01*
Y8750D01*
X298024D01*
Y39799D01*
X297733Y41262D01*
X297303Y41906D01*
X297982Y43176D01*
X448000D01*
X449463Y43468D01*
X450704Y44296D01*
X461195Y54788D01*
X462000Y54627D01*
X464439Y55113D01*
X466506Y56494D01*
X467887Y58561D01*
X468372Y61000D01*
X467887Y63439D01*
X466506Y65506D01*
X425578Y106434D01*
X425815Y107082D01*
X426201Y107607D01*
X480000D01*
Y16854D01*
X478754Y16607D01*
X478552Y17096D01*
X475464Y22134D01*
X471627Y26627D01*
X467134Y30464D01*
X462095Y33552D01*
X456636Y35813D01*
X450891Y37192D01*
X446270Y37556D01*
Y0D01*
X445000D01*
Y-1270D01*
X407444D01*
X407808Y-5891D01*
X409187Y-11636D01*
X411448Y-17096D01*
X414536Y-22134D01*
X418373Y-26627D01*
X422866Y-30464D01*
X427905Y-33552D01*
X428394Y-33754D01*
X428146Y-35000D01*
X16854D01*
X16606Y-33754D01*
X17096Y-33552D01*
X22134Y-30464D01*
X26627Y-26627D01*
X30464Y-22134D01*
X33552Y-17096D01*
X35813Y-11636D01*
X37192Y-5891D01*
X37556Y-1270D01*
X0D01*
Y0D01*
X-1270D01*
Y37556D01*
X-5891Y37192D01*
X-11636Y35813D01*
X-17096Y33552D01*
X-22134Y30464D01*
X-26627Y26627D01*
X-30464Y22134D01*
X-33552Y17096D01*
X-33754Y16606D01*
X-35000Y16854D01*
Y333146D01*
X-33754Y333394D01*
X-33552Y332905D01*
X-30464Y327866D01*
X-26627Y323373D01*
X-22134Y319536D01*
X-17096Y316448D01*
X-11636Y314187D01*
X-5891Y312808D01*
X-1270Y312444D01*
Y350000D01*
X0D01*
Y351270D01*
X37556D01*
X37192Y355891D01*
X35813Y361636D01*
X33552Y367095D01*
X30464Y372134D01*
X26627Y376627D01*
X22134Y380464D01*
X17096Y383552D01*
X16607Y383754D01*
X16854Y385000D01*
X428146D01*
X428394Y383754D01*
D02*
G37*
%LPC*%
G36*
X105000Y355348D02*
X101030Y354957D01*
X97213Y353799D01*
X93695Y351919D01*
X90612Y349388D01*
X88081Y346305D01*
X86201Y342787D01*
X85043Y338970D01*
X84652Y335000D01*
X85043Y331030D01*
X86201Y327213D01*
X88081Y323695D01*
X90612Y320612D01*
X93695Y318081D01*
X97213Y316201D01*
X101030Y315043D01*
X105000Y314652D01*
X108970Y315043D01*
X112787Y316201D01*
X116305Y318081D01*
X119388Y320612D01*
X121919Y323695D01*
X123799Y327213D01*
X124957Y331030D01*
X125348Y335000D01*
X124957Y338970D01*
X123799Y342787D01*
X121919Y346305D01*
X119388Y349388D01*
X116305Y351919D01*
X112787Y353799D01*
X108970Y354957D01*
X105000Y355348D01*
D02*
G37*
G36*
X443730Y348730D02*
X407444D01*
X407808Y344109D01*
X409187Y338364D01*
X411448Y332905D01*
X414536Y327866D01*
X418373Y323373D01*
X422866Y319536D01*
X427905Y316448D01*
X433364Y314187D01*
X439109Y312808D01*
X443730Y312444D01*
Y348730D01*
D02*
G37*
G36*
X37556D02*
X1270D01*
Y312444D01*
X5891Y312808D01*
X11636Y314187D01*
X17096Y316448D01*
X22134Y319536D01*
X26627Y323373D01*
X30464Y327866D01*
X33552Y332905D01*
X35813Y338364D01*
X37192Y344109D01*
X37556Y348730D01*
D02*
G37*
G36*
X131000Y315060D02*
X129173Y314820D01*
X127470Y314114D01*
X126007Y312992D01*
X124886Y311530D01*
X124180Y309827D01*
X123940Y308000D01*
X124180Y306173D01*
X124886Y304470D01*
X126007Y303008D01*
X127470Y301886D01*
X129173Y301180D01*
X131000Y300940D01*
X132827Y301180D01*
X134530Y301886D01*
X135992Y303008D01*
X137114Y304470D01*
X137820Y306173D01*
X138060Y308000D01*
X137820Y309827D01*
X137114Y311530D01*
X135992Y312992D01*
X134530Y314114D01*
X132827Y314820D01*
X131000Y315060D01*
D02*
G37*
G36*
X365000Y257353D02*
X362952Y256945D01*
X361215Y255785D01*
X360055Y254048D01*
X359647Y252000D01*
X360055Y249952D01*
X361215Y248215D01*
X362952Y247055D01*
X365000Y246647D01*
X367048Y247055D01*
X368785Y248215D01*
X369945Y249952D01*
X370353Y252000D01*
X369945Y254048D01*
X368785Y255785D01*
X367048Y256945D01*
X365000Y257353D01*
D02*
G37*
G36*
X298000Y228353D02*
X295952Y227945D01*
X294215Y226785D01*
X293055Y225048D01*
X292647Y223000D01*
X293055Y220952D01*
X294215Y219215D01*
X295952Y218055D01*
X298000Y217647D01*
X300048Y218055D01*
X301785Y219215D01*
X302945Y220952D01*
X303353Y223000D01*
X302945Y225048D01*
X301785Y226785D01*
X300048Y227945D01*
X298000Y228353D01*
D02*
G37*
G36*
X37686Y224624D02*
X26686D01*
X24247Y224139D01*
X22180Y222757D01*
X20798Y220690D01*
X20313Y218251D01*
X20798Y215812D01*
X22180Y213745D01*
X24247Y212364D01*
X26686Y211879D01*
X37686D01*
X40125Y212364D01*
X42192Y213745D01*
X43573Y215812D01*
X44058Y218251D01*
X43573Y220690D01*
X42192Y222757D01*
X40125Y224139D01*
X37686Y224624D01*
D02*
G37*
G36*
X-5314D02*
X-14314D01*
X-16753Y224139D01*
X-18820Y222757D01*
X-20201Y220690D01*
X-20687Y218251D01*
X-20201Y215812D01*
X-18820Y213745D01*
X-16753Y212364D01*
X-14314Y211879D01*
X-5314D01*
X-2875Y212364D01*
X-808Y213745D01*
X573Y215812D01*
X1058Y218251D01*
X573Y220690D01*
X-808Y222757D01*
X-2875Y224139D01*
X-5314Y224624D01*
D02*
G37*
G36*
X306000Y219353D02*
X303952Y218945D01*
X302215Y217785D01*
X301055Y216048D01*
X300647Y214000D01*
X301055Y211952D01*
X302215Y210215D01*
X303952Y209055D01*
X306000Y208647D01*
X308048Y209055D01*
X309785Y210215D01*
X310945Y211952D01*
X311353Y214000D01*
X310945Y216048D01*
X309785Y217785D01*
X308048Y218945D01*
X306000Y219353D01*
D02*
G37*
G36*
X27187Y208487D02*
X25431Y208138D01*
X23943Y207143D01*
X22948Y205655D01*
X22599Y203899D01*
X22948Y202143D01*
X23943Y200655D01*
X25431Y199660D01*
X27187Y199311D01*
X28943Y199660D01*
X30431Y200655D01*
X31426Y202143D01*
X31775Y203899D01*
X31426Y205655D01*
X30431Y207143D01*
X28943Y208138D01*
X27187Y208487D01*
D02*
G37*
G36*
X55000Y206060D02*
X53173Y205820D01*
X51470Y205114D01*
X50008Y203993D01*
X48885Y202530D01*
X48180Y200827D01*
X47940Y199000D01*
X48180Y197173D01*
X48885Y195470D01*
X50008Y194008D01*
X51470Y192885D01*
X53173Y192180D01*
X55000Y191940D01*
X56827Y192180D01*
X58530Y192885D01*
X59992Y194008D01*
X61115Y195470D01*
X61820Y197173D01*
X62060Y199000D01*
X61820Y200827D01*
X61115Y202530D01*
X59992Y203993D01*
X58530Y205114D01*
X56827Y205820D01*
X55000Y206060D01*
D02*
G37*
G36*
X150000Y198824D02*
X148537Y198532D01*
X147296Y197704D01*
X146468Y196463D01*
X146249Y195363D01*
X132443Y181557D01*
X131965Y180843D01*
X131798Y180000D01*
Y158912D01*
X129591Y156706D01*
X129000Y156824D01*
X127537Y156532D01*
X126296Y155704D01*
X125468Y154463D01*
X125176Y153000D01*
X125468Y151537D01*
X126296Y150296D01*
X127537Y149468D01*
X129000Y149177D01*
X130463Y149468D01*
X131704Y150296D01*
X132532Y151537D01*
X132823Y153000D01*
X132706Y153591D01*
X135557Y156443D01*
X136035Y157157D01*
X136202Y158000D01*
Y179088D01*
X148575Y191460D01*
X150000Y191176D01*
X151463Y191468D01*
X152704Y192296D01*
X153532Y193537D01*
X153823Y195000D01*
X153532Y196463D01*
X152704Y197704D01*
X151463Y198532D01*
X150000Y198824D01*
D02*
G37*
G36*
X110000Y205060D02*
X108173Y204820D01*
X106470Y204114D01*
X105008Y202992D01*
X103885Y201530D01*
X103180Y199827D01*
X102940Y198000D01*
X103180Y196173D01*
X103885Y194470D01*
X105008Y193008D01*
X106470Y191886D01*
X108173Y191180D01*
X110000Y190940D01*
X111827Y191180D01*
X113530Y191886D01*
X114993Y193008D01*
X116115Y194470D01*
X116820Y196173D01*
X117060Y198000D01*
X116820Y199827D01*
X116115Y201530D01*
X114993Y202992D01*
X113530Y204114D01*
X111827Y204820D01*
X110000Y205060D01*
D02*
G37*
G36*
X285000Y195353D02*
X282952Y194945D01*
X281215Y193785D01*
X280055Y192048D01*
X279647Y190000D01*
X279997Y188241D01*
X234050Y142294D01*
X177281D01*
X176285Y143785D01*
X174548Y144945D01*
X172500Y145353D01*
X170452Y144945D01*
X168715Y143785D01*
X167555Y142048D01*
X167147Y140000D01*
X167555Y137952D01*
X168715Y136215D01*
X170452Y135055D01*
X172500Y134647D01*
X174548Y135055D01*
X176285Y136215D01*
X177281Y137706D01*
X235000D01*
X235878Y137880D01*
X236622Y138378D01*
X283241Y184997D01*
X285000Y184647D01*
X287048Y185055D01*
X288785Y186215D01*
X289945Y187952D01*
X290353Y190000D01*
X289945Y192048D01*
X288785Y193785D01*
X287048Y194945D01*
X285000Y195353D01*
D02*
G37*
G36*
X148000Y183060D02*
X146173Y182820D01*
X144470Y182115D01*
X143008Y180992D01*
X141885Y179530D01*
X141180Y177827D01*
X140940Y176000D01*
X141180Y174173D01*
X141885Y172470D01*
X143008Y171008D01*
X144470Y169886D01*
X146173Y169180D01*
X148000Y168940D01*
X149827Y169180D01*
X151530Y169886D01*
X152992Y171008D01*
X154115Y172470D01*
X154820Y174173D01*
X155060Y176000D01*
X154820Y177827D01*
X154115Y179530D01*
X152992Y180992D01*
X151530Y182115D01*
X149827Y182820D01*
X148000Y183060D01*
D02*
G37*
G36*
X111270Y157429D02*
Y152270D01*
X116429D01*
X116372Y152707D01*
X115713Y154298D01*
X114664Y155664D01*
X113298Y156713D01*
X111707Y157372D01*
X111270Y157429D01*
D02*
G37*
G36*
X108730D02*
X108293Y157372D01*
X106702Y156713D01*
X105336Y155664D01*
X104287Y154298D01*
X103628Y152707D01*
X103571Y152270D01*
X108730D01*
Y157429D01*
D02*
G37*
G36*
X293115Y155968D02*
X291067Y155560D01*
X289330Y154400D01*
X288334Y152909D01*
X273115D01*
X272237Y152734D01*
X271493Y152237D01*
X221550Y102294D01*
X164781D01*
X163785Y103785D01*
X162048Y104945D01*
X160000Y105353D01*
X157952Y104945D01*
X156215Y103785D01*
X155055Y102048D01*
X154647Y100000D01*
X155055Y97952D01*
X156215Y96215D01*
X157952Y95055D01*
X160000Y94647D01*
X162048Y95055D01*
X163785Y96215D01*
X164781Y97706D01*
X222500D01*
X223378Y97881D01*
X224122Y98378D01*
X274065Y148321D01*
X288334D01*
X289330Y146830D01*
X291067Y145670D01*
X293115Y145262D01*
X295163Y145670D01*
X296900Y146830D01*
X298060Y148567D01*
X298468Y150615D01*
X298060Y152663D01*
X296900Y154400D01*
X295163Y155560D01*
X293115Y155968D01*
D02*
G37*
G36*
X60000Y159060D02*
X58173Y158820D01*
X56470Y158115D01*
X55008Y156992D01*
X53885Y155530D01*
X53180Y153827D01*
X52940Y152000D01*
X53180Y150173D01*
X53885Y148470D01*
X55008Y147008D01*
X56470Y145885D01*
X58173Y145180D01*
X60000Y144940D01*
X61827Y145180D01*
X63530Y145885D01*
X64992Y147008D01*
X66115Y148470D01*
X66820Y150173D01*
X67060Y152000D01*
X66820Y153827D01*
X66115Y155530D01*
X64992Y156992D01*
X63530Y158115D01*
X61827Y158820D01*
X60000Y159060D01*
D02*
G37*
G36*
X116429Y149730D02*
X111270D01*
Y144571D01*
X111707Y144628D01*
X113298Y145287D01*
X114664Y146336D01*
X115713Y147702D01*
X116372Y149293D01*
X116429Y149730D01*
D02*
G37*
G36*
X108730D02*
X103571D01*
X103628Y149293D01*
X104287Y147702D01*
X105336Y146336D01*
X106702Y145287D01*
X108293Y144628D01*
X108730Y144571D01*
Y149730D01*
D02*
G37*
G36*
X27187Y150687D02*
X25431Y150337D01*
X23943Y149343D01*
X22948Y147854D01*
X22599Y146099D01*
X22948Y144343D01*
X23943Y142854D01*
X25431Y141860D01*
X27187Y141510D01*
X28943Y141860D01*
X30431Y142854D01*
X31426Y144343D01*
X31775Y146099D01*
X31426Y147854D01*
X30431Y149343D01*
X28943Y150337D01*
X27187Y150687D01*
D02*
G37*
G36*
X308000Y137353D02*
X305952Y136945D01*
X304215Y135785D01*
X303219Y134294D01*
X295000D01*
X294122Y134119D01*
X293378Y133622D01*
X283378Y123622D01*
X282880Y122878D01*
X282706Y122000D01*
Y106000D01*
X282880Y105122D01*
X283378Y104378D01*
X299831Y87925D01*
X299647Y87000D01*
X300055Y84952D01*
X301215Y83215D01*
X302952Y82055D01*
X305000Y81647D01*
X307048Y82055D01*
X308785Y83215D01*
X309945Y84952D01*
X310353Y87000D01*
X309945Y89048D01*
X308785Y90785D01*
X307048Y91945D01*
X305000Y92353D01*
X302952Y91945D01*
X302560Y91684D01*
X287294Y106950D01*
Y121050D01*
X295950Y129706D01*
X303219D01*
X304215Y128215D01*
X305952Y127055D01*
X308000Y126647D01*
X310048Y127055D01*
X311785Y128215D01*
X312945Y129952D01*
X313353Y132000D01*
X312945Y134048D01*
X311785Y135785D01*
X310048Y136945D01*
X308000Y137353D01*
D02*
G37*
G36*
X37686Y138121D02*
X26686D01*
X24247Y137636D01*
X22180Y136255D01*
X20798Y134187D01*
X20313Y131749D01*
X20798Y129310D01*
X22180Y127243D01*
X24247Y125862D01*
X26686Y125376D01*
X37686D01*
X40125Y125862D01*
X42192Y127243D01*
X43573Y129310D01*
X44058Y131749D01*
X43573Y134187D01*
X42192Y136255D01*
X40125Y137636D01*
X37686Y138121D01*
D02*
G37*
G36*
X-5314D02*
X-14314D01*
X-16753Y137636D01*
X-18820Y136255D01*
X-20201Y134187D01*
X-20687Y131749D01*
X-20201Y129310D01*
X-18820Y127243D01*
X-16753Y125862D01*
X-14314Y125376D01*
X-5314D01*
X-2875Y125862D01*
X-808Y127243D01*
X573Y129310D01*
X1058Y131749D01*
X573Y134187D01*
X-808Y136255D01*
X-2875Y137636D01*
X-5314Y138121D01*
D02*
G37*
G36*
X211270Y127896D02*
Y123770D01*
X215396D01*
X215219Y124662D01*
X213994Y126494D01*
X212162Y127718D01*
X211270Y127896D01*
D02*
G37*
G36*
X208730D02*
X207838Y127718D01*
X206006Y126494D01*
X204781Y124662D01*
X204604Y123770D01*
X208730D01*
Y127896D01*
D02*
G37*
G36*
X215396Y121230D02*
X211270D01*
Y117104D01*
X212162Y117281D01*
X213994Y118506D01*
X215219Y120338D01*
X215396Y121230D01*
D02*
G37*
G36*
X208730D02*
X204604D01*
X204781Y120338D01*
X206006Y118506D01*
X207838Y117281D01*
X208730Y117104D01*
Y121230D01*
D02*
G37*
G36*
X378000Y254353D02*
X375952Y253945D01*
X374215Y252785D01*
X373055Y251048D01*
X372647Y249000D01*
X373055Y246952D01*
X374215Y245215D01*
X375206Y244553D01*
Y225950D01*
X333378Y184122D01*
X332881Y183378D01*
X332706Y182500D01*
Y138450D01*
X309090Y114834D01*
X299755D01*
X298785Y116285D01*
X297048Y117445D01*
X295000Y117853D01*
X292952Y117445D01*
X291215Y116285D01*
X290055Y114548D01*
X289647Y112500D01*
X290055Y110452D01*
X291215Y108715D01*
X292952Y107555D01*
X295000Y107147D01*
X297048Y107555D01*
X298785Y108715D01*
X299808Y110246D01*
X310040D01*
X310918Y110421D01*
X311662Y110918D01*
X336622Y135878D01*
X337119Y136622D01*
X337294Y137500D01*
Y181550D01*
X379122Y223378D01*
X379619Y224122D01*
X379794Y225000D01*
Y244004D01*
X380048Y244055D01*
X381785Y245215D01*
X382945Y246952D01*
X383353Y249000D01*
X382945Y251048D01*
X381785Y252785D01*
X380048Y253945D01*
X378000Y254353D01*
D02*
G37*
G36*
X397000Y98353D02*
X394952Y97945D01*
X393215Y96785D01*
X392055Y95048D01*
X391647Y93000D01*
X392055Y90952D01*
X393215Y89215D01*
X394952Y88055D01*
X397000Y87647D01*
X399048Y88055D01*
X400785Y89215D01*
X401945Y90952D01*
X402353Y93000D01*
X401945Y95048D01*
X400785Y96785D01*
X399048Y97945D01*
X397000Y98353D01*
D02*
G37*
G36*
X398000Y81353D02*
X395952Y80945D01*
X394215Y79785D01*
X393055Y78048D01*
X392647Y76000D01*
X393055Y73952D01*
X394215Y72215D01*
X395952Y71055D01*
X398000Y70647D01*
X400048Y71055D01*
X401785Y72215D01*
X402945Y73952D01*
X403353Y76000D01*
X402945Y78048D01*
X401785Y79785D01*
X400048Y80945D01*
X398000Y81353D01*
D02*
G37*
G36*
X171270Y21519D02*
Y1270D01*
X191519D01*
X191228Y4223D01*
X189997Y8283D01*
X187997Y12025D01*
X185305Y15305D01*
X182025Y17996D01*
X178283Y19997D01*
X174223Y21228D01*
X171270Y21519D01*
D02*
G37*
G36*
X1270Y37556D02*
Y1270D01*
X37556D01*
X37192Y5891D01*
X35813Y11636D01*
X33552Y17096D01*
X30464Y22134D01*
X26627Y26627D01*
X22134Y30464D01*
X17096Y33552D01*
X11636Y35813D01*
X5891Y37192D01*
X1270Y37556D01*
D02*
G37*
G36*
X371670Y9959D02*
Y1270D01*
X380359D01*
X380182Y2621D01*
X379170Y5063D01*
X377561Y7161D01*
X375463Y8770D01*
X373021Y9782D01*
X371670Y9959D01*
D02*
G37*
G36*
X369130D02*
X367779Y9782D01*
X365337Y8770D01*
X363239Y7161D01*
X361630Y5063D01*
X360619Y2621D01*
X360441Y1270D01*
X369130D01*
Y9959D01*
D02*
G37*
G36*
X168730Y21519D02*
X165777Y21228D01*
X161717Y19997D01*
X157975Y17996D01*
X154695Y15305D01*
X152003Y12025D01*
X150003Y8283D01*
X148772Y4223D01*
X148481Y1270D01*
X168730D01*
Y21519D01*
D02*
G37*
G36*
X443730Y37556D02*
X439109Y37192D01*
X433364Y35813D01*
X427905Y33552D01*
X422866Y30464D01*
X418373Y26627D01*
X414536Y22134D01*
X411448Y17096D01*
X409187Y11636D01*
X407808Y5891D01*
X407444Y1270D01*
X443730D01*
Y37556D01*
D02*
G37*
G36*
X345000Y8826D02*
X342716Y8525D01*
X340587Y7643D01*
X338759Y6241D01*
X337357Y4413D01*
X336475Y2284D01*
X336175Y0D01*
X336475Y-2284D01*
X337357Y-4413D01*
X338759Y-6241D01*
X340587Y-7643D01*
X342716Y-8525D01*
X345000Y-8826D01*
X347284Y-8525D01*
X349413Y-7643D01*
X351241Y-6241D01*
X352643Y-4413D01*
X353525Y-2284D01*
X353825Y0D01*
X353525Y2284D01*
X352643Y4413D01*
X351241Y6241D01*
X349413Y7643D01*
X347284Y8525D01*
X345000Y8826D01*
D02*
G37*
G36*
X319601Y8825D02*
X317317Y8524D01*
X315188Y7643D01*
X313360Y6240D01*
X311958Y4412D01*
X311076Y2284D01*
X310775Y-0D01*
X311076Y-2285D01*
X311958Y-4413D01*
X313360Y-6241D01*
X315188Y-7643D01*
X317317Y-8525D01*
X319601Y-8826D01*
X321885Y-8525D01*
X324014Y-7643D01*
X325841Y-6241D01*
X327244Y-4413D01*
X328126Y-2285D01*
X328426Y-0D01*
X328126Y2284D01*
X327244Y4412D01*
X325841Y6240D01*
X324014Y7643D01*
X321885Y8524D01*
X319601Y8825D01*
D02*
G37*
G36*
X380359Y-1270D02*
X371670D01*
Y-9959D01*
X373021Y-9782D01*
X375463Y-8770D01*
X377561Y-7161D01*
X379170Y-5063D01*
X380182Y-2621D01*
X380359Y-1270D01*
D02*
G37*
G36*
X369130D02*
X360441D01*
X360619Y-2621D01*
X361630Y-5063D01*
X363239Y-7161D01*
X365337Y-8770D01*
X367779Y-9782D01*
X369130Y-9959D01*
Y-1270D01*
D02*
G37*
G36*
X110000Y20368D02*
X106026Y19977D01*
X102205Y18818D01*
X98684Y16935D01*
X95598Y14402D01*
X93065Y11316D01*
X91182Y7794D01*
X90023Y3974D01*
X89632Y0D01*
X90023Y-3974D01*
X91182Y-7794D01*
X93065Y-11316D01*
X95598Y-14402D01*
X98684Y-16935D01*
X102205Y-18818D01*
X106026Y-19977D01*
X110000Y-20368D01*
X113974Y-19977D01*
X117795Y-18818D01*
X121316Y-16935D01*
X124402Y-14402D01*
X126935Y-11316D01*
X128818Y-7794D01*
X129977Y-3974D01*
X130368Y0D01*
X129977Y3974D01*
X128818Y7794D01*
X126935Y11316D01*
X124402Y14402D01*
X121316Y16935D01*
X117795Y18818D01*
X113974Y19977D01*
X110000Y20368D01*
D02*
G37*
G36*
X191519Y-1270D02*
X171270D01*
Y-21519D01*
X174223Y-21228D01*
X178283Y-19997D01*
X182025Y-17996D01*
X185305Y-15305D01*
X187997Y-12025D01*
X189997Y-8283D01*
X191228Y-4223D01*
X191519Y-1270D01*
D02*
G37*
G36*
X168730D02*
X148481D01*
X148772Y-4223D01*
X150003Y-8283D01*
X152003Y-12025D01*
X154695Y-15305D01*
X157975Y-17996D01*
X161717Y-19997D01*
X165777Y-21228D01*
X168730Y-21519D01*
Y-1270D01*
D02*
G37*
%LPD*%
D12*
X285000Y106000D02*
X304000Y87000D01*
X305000D01*
X377500Y225000D02*
Y250000D01*
X160000Y100000D02*
X222500D01*
X172500Y140000D02*
X235000D01*
X285000Y106000D02*
Y122000D01*
X295000Y132000D02*
X308000D01*
X285000Y122000D02*
X295000Y132000D01*
Y112500D02*
X295040Y112540D01*
X310040D02*
X335000Y137500D01*
X295040Y112540D02*
X310040D01*
X335000Y137500D02*
Y182500D01*
X377500Y225000D01*
X235000Y140000D02*
X285000Y190000D01*
X273115Y150615D02*
X293115D01*
X222500Y100000D02*
X273115Y150615D01*
D60*
X134000Y158000D02*
Y180000D01*
X149000Y195000D02*
X150000D01*
X129000Y153000D02*
X134000Y158000D01*
Y180000D02*
X149000Y195000D01*
D61*
X267000Y73071D02*
Y123000D01*
Y73071D02*
X267987Y72084D01*
D62*
X285000Y49000D02*
X287000Y47000D01*
X284904Y49096D02*
X285000Y49000D01*
X267987Y72084D02*
X284904Y55167D01*
X251071Y89000D02*
X267000Y73071D01*
X165000Y111000D02*
X185000Y131000D01*
X133000Y111000D02*
X165000D01*
X142000Y89000D02*
X251071D01*
X284904Y49096D02*
Y55167D01*
X133000Y98000D02*
Y111000D01*
Y98000D02*
X142000Y89000D01*
X287000Y47000D02*
X294201Y39799D01*
Y-0D02*
Y39799D01*
X287000Y47000D02*
X448000D01*
X462000Y61000D01*
D65*
X395500Y127500D02*
Y312500D01*
Y127500D02*
X462000Y61000D01*
D66*
X170000Y0D02*
D03*
X110000D02*
D03*
X105000Y335000D02*
D03*
D67*
X319601Y-0D02*
D03*
X345000Y0D02*
D03*
X370400D02*
D03*
D68*
X294201Y-0D02*
D03*
D69*
X27187Y146099D02*
D03*
Y203899D02*
D03*
D70*
X-9814Y131749D02*
D03*
Y218251D02*
D03*
D71*
X32186Y131749D02*
D03*
Y218251D02*
D03*
D72*
X0Y350000D02*
D03*
X445000D02*
D03*
Y0D02*
D03*
X0D02*
D03*
D73*
X440000Y295000D02*
D03*
X455000Y265000D02*
D03*
X440000Y55000D02*
D03*
X425000Y265000D02*
D03*
X410000Y175000D02*
D03*
Y55000D02*
D03*
X380000Y355000D02*
D03*
Y295000D02*
D03*
Y55000D02*
D03*
X395000Y25000D02*
D03*
X350000Y355000D02*
D03*
X365000Y325000D02*
D03*
X350000Y295000D02*
D03*
Y55000D02*
D03*
X365000Y25000D02*
D03*
X320000Y355000D02*
D03*
X335000Y325000D02*
D03*
Y265000D02*
D03*
Y205000D02*
D03*
Y85000D02*
D03*
Y25000D02*
D03*
X290000Y355000D02*
D03*
X305000Y325000D02*
D03*
Y25000D02*
D03*
X260000Y355000D02*
D03*
X275000Y325000D02*
D03*
Y265000D02*
D03*
X260000Y235000D02*
D03*
X275000Y205000D02*
D03*
X260000Y115000D02*
D03*
X275000Y85000D02*
D03*
X260000Y55000D02*
D03*
X275000Y25000D02*
D03*
X260000Y-5000D02*
D03*
X230000Y355000D02*
D03*
Y295000D02*
D03*
X245000Y265000D02*
D03*
X230000Y235000D02*
D03*
X245000Y205000D02*
D03*
X230000Y55000D02*
D03*
X245000Y25000D02*
D03*
X230000Y-5000D02*
D03*
X200000Y355000D02*
D03*
X215000Y325000D02*
D03*
X200000Y295000D02*
D03*
X215000Y265000D02*
D03*
X200000Y235000D02*
D03*
X215000Y205000D02*
D03*
X200000Y55000D02*
D03*
X215000Y25000D02*
D03*
X200000Y-5000D02*
D03*
X170000Y355000D02*
D03*
X185000Y325000D02*
D03*
Y265000D02*
D03*
X170000Y235000D02*
D03*
X185000Y205000D02*
D03*
Y145000D02*
D03*
Y25000D02*
D03*
X140000Y355000D02*
D03*
X155000Y325000D02*
D03*
Y205000D02*
D03*
Y25000D02*
D03*
X140000Y-5000D02*
D03*
X110000Y115000D02*
D03*
X125000Y25000D02*
D03*
X80000Y355000D02*
D03*
Y295000D02*
D03*
Y235000D02*
D03*
X95000Y25000D02*
D03*
X80000Y-5000D02*
D03*
X50000Y355000D02*
D03*
X65000Y325000D02*
D03*
X50000Y295000D02*
D03*
Y235000D02*
D03*
Y115000D02*
D03*
X65000Y25000D02*
D03*
X50000Y-5000D02*
D03*
X35000Y325000D02*
D03*
X20000Y295000D02*
D03*
X35000Y265000D02*
D03*
X20000Y235000D02*
D03*
Y175000D02*
D03*
Y115000D02*
D03*
X35000Y85000D02*
D03*
X20000Y55000D02*
D03*
X35000Y25000D02*
D03*
X-10000Y295000D02*
D03*
X5000Y265000D02*
D03*
X-10000Y235000D02*
D03*
X5000Y205000D02*
D03*
X-10000Y175000D02*
D03*
X5000Y145000D02*
D03*
X-10000Y115000D02*
D03*
X5000Y85000D02*
D03*
X-10000Y55000D02*
D03*
X150000Y195000D02*
D03*
X129000Y153000D02*
D03*
D74*
X305000Y87000D02*
D03*
X60000Y152000D02*
D03*
X267000Y123000D02*
D03*
X203000Y79000D02*
D03*
X160000Y100000D02*
D03*
X133000Y111000D02*
D03*
X172500Y140000D02*
D03*
X185000Y131000D02*
D03*
X285000Y49000D02*
D03*
X462000Y61000D02*
D03*
X365000Y252000D02*
D03*
X397000Y93000D02*
D03*
X306000Y214000D02*
D03*
X298000Y223000D02*
D03*
X398000Y76000D02*
D03*
X308000Y132000D02*
D03*
X378000Y249000D02*
D03*
X295000Y112500D02*
D03*
X285000Y190000D02*
D03*
X293115Y150615D02*
D03*
X148000Y176000D02*
D03*
X55000Y199000D02*
D03*
X131000Y308000D02*
D03*
X110000Y151000D02*
D03*
Y198000D02*
D03*
D75*
X210000Y122500D02*
D03*
X395500Y312500D02*
D03*
M02*
