G04*
G04 #@! TF.GenerationSoftware,Altium Limited,Altium Designer,20.0.7 (75)*
G04*
G04 Layer_Color=65535*
%FSLAX44Y44*%
%MOMM*%
G71*
G01*
G75*
%ADD10C,0.2540*%
%ADD11C,0.5080*%
%ADD12C,0.2000*%
%ADD13C,0.1524*%
%ADD14C,0.1270*%
%ADD15C,0.1500*%
%ADD16C,0.0762*%
D10*
X-34911Y2494D02*
G03*
X0Y-35000I34911J-2494D01*
G01*
X445000Y-35000D02*
G03*
X480000Y0I0J35000D01*
G01*
Y350000D02*
G03*
X445000Y385000I-35000J0D01*
G01*
X0Y385089D02*
G03*
X-35089Y350000I0J-35089D01*
G01*
X-2500Y-35000D02*
X445000D01*
X480000Y350000D02*
X480000Y0D01*
X-35000Y350000D02*
X-35000Y2494D01*
X0Y385000D02*
X445000Y385000D01*
X1959Y131000D02*
X19413D01*
X-35814D02*
X-21587D01*
X1959Y219000D02*
X19413D01*
X-35814D02*
X-21587D01*
X-35814Y131000D02*
Y219000D01*
D11*
X307789Y290750D02*
G03*
X307789Y290750I-3810J0D01*
G01*
Y78750D02*
G03*
X307789Y78750I-3810J0D01*
G01*
D12*
X232000Y148000D02*
G03*
X232000Y148000I-1000J0D01*
G01*
X281501Y-12700D02*
Y12700D01*
Y-12700D02*
X383100D01*
X281501Y12700D02*
X383100D01*
Y-12700D02*
Y12700D01*
X282000Y278500D02*
Y281500D01*
X288000Y278500D02*
Y281500D01*
X308750Y280000D02*
X309127Y279999D01*
X300873Y280001D02*
X301250Y280000D01*
X403750Y253250D02*
X406250D01*
X403750Y266750D02*
X406250D01*
X403750Y273250D02*
X406250D01*
X403750Y286750D02*
X406250D01*
X403750Y293250D02*
X406250D01*
X403750Y306750D02*
X406250D01*
X456499Y87873D02*
X456500Y88250D01*
Y95750D02*
X456501Y96127D01*
X443750Y88312D02*
X443750Y88689D01*
X456499Y70873D02*
X456500Y71250D01*
Y78750D02*
X456501Y79127D01*
X443750Y71311D02*
X443750Y71689D01*
X415000Y89000D02*
X418000D01*
X415000Y95000D02*
X418000D01*
X415000Y72000D02*
X418000D01*
X415000Y78000D02*
X418000D01*
X282000Y66500D02*
Y69500D01*
X288000Y66500D02*
Y69500D01*
X308750Y68000D02*
X309127Y67999D01*
X300873Y68001D02*
X301250Y68000D01*
X283500Y143000D02*
X286500D01*
X283500Y137000D02*
X286500D01*
X283500Y128000D02*
X286500D01*
X283500Y122000D02*
X286500D01*
X187000Y68500D02*
Y71500D01*
X193000Y68500D02*
Y71500D01*
X173000Y68500D02*
Y71500D01*
X167000Y68500D02*
Y71500D01*
X126000Y66000D02*
X154000D01*
X126000D02*
Y74000D01*
X146000D01*
X154000Y66000D01*
X151000Y74000D02*
X154000D01*
X151000D02*
X154000Y71000D01*
Y74000D01*
X138500Y103000D02*
X141500D01*
X138500Y97000D02*
X141500D01*
X98500Y103000D02*
X101500D01*
X98500Y97000D02*
X101500D01*
X86000Y66000D02*
X114000D01*
X86000D02*
Y74000D01*
X106000D01*
X114000Y66000D01*
X111000Y74000D02*
X114000D01*
X111000D02*
X114000Y71000D01*
Y74000D01*
X67000Y68500D02*
Y71500D01*
X73000Y68500D02*
Y71500D01*
X53750Y70000D02*
X54127Y69999D01*
X45873Y70001D02*
X46250Y70000D01*
X53312Y57250D02*
X53689Y57249D01*
X96000Y171000D02*
Y174000D01*
X99000Y171000D01*
X96000D02*
X99000D01*
X96000Y179000D02*
X104000Y171000D01*
X124000D01*
Y179000D01*
X96000D02*
X124000D01*
X223750Y130000D02*
X224127Y129999D01*
X215873Y130001D02*
X216250Y130000D01*
X203750D02*
X204127Y129999D01*
X195873Y130001D02*
X196250Y130000D01*
X162750Y263250D02*
X165250D01*
X162750Y276750D02*
X165250D01*
X162750Y286250D02*
X165250D01*
X162750Y299750D02*
X165250D01*
X82201Y237499D02*
X116008D01*
X82201Y302501D02*
X116008D01*
D13*
X321759Y276133D02*
Y283867D01*
Y298288D02*
X368241D01*
Y276133D02*
Y283867D01*
X321759Y261712D02*
X368241D01*
X312723Y107690D02*
Y242310D01*
Y107690D02*
X481379D01*
Y242310D01*
X312723D02*
X481379D01*
X321759Y64133D02*
Y71867D01*
Y86288D02*
X368241D01*
Y64133D02*
Y71867D01*
X321759Y49712D02*
X368241D01*
D14*
X170000Y148860D02*
X210000D01*
X170000Y201140D02*
X210000D01*
X348770Y96767D02*
X351436D01*
X350103D01*
Y88770D01*
X348770D01*
X351436D01*
X359433Y96767D02*
X356767D01*
X355434Y95435D01*
Y90103D01*
X356767Y88770D01*
X359433D01*
X360766Y90103D01*
Y95435D01*
X359433Y96767D01*
X363432Y90103D02*
X364765Y88770D01*
X367431D01*
X368764Y90103D01*
Y95435D01*
X367431Y96767D01*
X364765D01*
X363432Y95435D01*
Y94102D01*
X364765Y92769D01*
X368764D01*
X359102Y309267D02*
X353770D01*
Y301270D01*
X359102D01*
X353770Y305269D02*
X356436D01*
X361767Y301270D02*
Y309267D01*
X367099Y301270D01*
Y309267D01*
X296268Y36230D02*
X297268Y35230D01*
Y33231D01*
X296268Y32231D01*
X295269D01*
X294269Y33231D01*
Y34231D01*
Y33231D01*
X293269Y32231D01*
X292270D01*
X291270Y33231D01*
Y35230D01*
X292270Y36230D01*
X291270Y30232D02*
X292270D01*
Y29232D01*
X291270D01*
Y30232D01*
X296268Y25234D02*
X297268Y24234D01*
Y22234D01*
X296268Y21235D01*
X295269D01*
X294269Y22234D01*
Y23234D01*
Y22234D01*
X293269Y21235D01*
X292270D01*
X291270Y22234D01*
Y24234D01*
X292270Y25234D01*
X297268Y19236D02*
X293269D01*
X291270Y17236D01*
X293269Y15237D01*
X297268D01*
X316270Y26230D02*
X322268D01*
Y23231D01*
X321268Y22231D01*
X319269D01*
X318269Y23231D01*
Y26230D01*
Y24231D02*
X316270Y22231D01*
X322268Y20232D02*
X316270Y16233D01*
X322268D02*
X316270Y20232D01*
X347268Y26230D02*
Y22231D01*
Y24231D01*
X341270D01*
X347268Y20232D02*
X341270Y16233D01*
X347268D02*
X341270Y20232D01*
X373768Y27231D02*
X374768Y28231D01*
Y30230D01*
X373768Y31230D01*
X369770D01*
X368770Y30230D01*
Y28231D01*
X369770Y27231D01*
X371769D01*
Y29231D01*
X368770Y25232D02*
X374768D01*
X368770Y21233D01*
X374768D01*
Y19234D02*
X368770D01*
Y16235D01*
X369770Y15235D01*
X373768D01*
X374768Y16235D01*
Y19234D01*
X476269Y72270D02*
X472270D01*
X476269Y76269D01*
Y77268D01*
X475269Y78268D01*
X473270D01*
X472270Y77268D01*
X473270Y89270D02*
X475269D01*
X474270D01*
Y95268D01*
X473270Y94268D01*
D15*
X86500Y364831D02*
X88166Y366497D01*
X91498D01*
X93165Y364831D01*
Y363164D01*
X91498Y361498D01*
X89832D01*
X91498D01*
X93165Y359832D01*
Y358166D01*
X91498Y356500D01*
X88166D01*
X86500Y358166D01*
X96497Y356500D02*
Y358166D01*
X98163D01*
Y356500D01*
X96497D01*
X104827Y364831D02*
X106494Y366497D01*
X109826D01*
X111492Y364831D01*
Y363164D01*
X109826Y361498D01*
X108160D01*
X109826D01*
X111492Y359832D01*
Y358166D01*
X109826Y356500D01*
X106494D01*
X104827Y358166D01*
X114824Y366497D02*
Y359832D01*
X118156Y356500D01*
X121489Y359832D01*
Y366497D01*
X163165Y-22669D02*
X161498Y-21003D01*
X158166D01*
X156500Y-22669D01*
Y-29334D01*
X158166Y-31000D01*
X161498D01*
X163165Y-29334D01*
Y-26002D01*
X159832D01*
X166497Y-31000D02*
Y-21003D01*
X173161Y-31000D01*
Y-21003D01*
X176493D02*
Y-31000D01*
X181492D01*
X183158Y-29334D01*
Y-22669D01*
X181492Y-21003D01*
X176493D01*
X91500D02*
Y-27668D01*
X94832Y-31000D01*
X98165Y-27668D01*
Y-21003D01*
X106495D02*
X103163D01*
X101497Y-22669D01*
Y-29334D01*
X103163Y-31000D01*
X106495D01*
X108161Y-29334D01*
Y-22669D01*
X106495Y-21003D01*
X111494D02*
Y-29334D01*
X113160Y-31000D01*
X116492D01*
X118158Y-29334D01*
Y-21003D01*
X121490D02*
X128155D01*
X124823D01*
Y-31000D01*
X166167Y33999D02*
X163501D01*
X164834D01*
Y27334D01*
X163501Y26001D01*
X162168D01*
X160835Y27334D01*
X168833Y32666D02*
X170166Y33999D01*
X172832D01*
X174165Y32666D01*
Y31333D01*
X172832Y30000D01*
X171499D01*
X172832D01*
X174165Y28667D01*
Y27334D01*
X172832Y26001D01*
X170166D01*
X168833Y27334D01*
X110000Y33999D02*
X107334D01*
X108667D01*
Y27334D01*
X107334Y26001D01*
X106001D01*
X104668Y27334D01*
X112666Y26001D02*
X115332D01*
X113999D01*
Y33999D01*
X112666Y32666D01*
X263335Y-3999D02*
Y3999D01*
X267334D01*
X268667Y2666D01*
Y0D01*
X267334Y-1333D01*
X263335D01*
X276665Y-3999D02*
X271333D01*
X276665Y1333D01*
Y2666D01*
X275332Y3999D01*
X272666D01*
X271333Y2666D01*
X72667Y339999D02*
X70001D01*
X71334D01*
Y333334D01*
X70001Y332001D01*
X68668D01*
X67336Y333334D01*
X80665Y332001D02*
X75333D01*
X80665Y337333D01*
Y338666D01*
X79332Y339999D01*
X76666D01*
X75333Y338666D01*
X324001Y307666D02*
X322668Y308999D01*
X320003D01*
X318670Y307666D01*
Y306333D01*
X320003Y305000D01*
X322668D01*
X324001Y303667D01*
Y302334D01*
X322668Y301001D01*
X320003D01*
X318670Y302334D01*
X326667Y308999D02*
Y301001D01*
X329333Y303667D01*
X331999Y301001D01*
Y308999D01*
X334664Y301001D02*
X337330D01*
X335997D01*
Y308999D01*
X334664Y307666D01*
X279335Y257001D02*
Y264999D01*
X283334D01*
X284667Y263666D01*
Y261000D01*
X283334Y259667D01*
X279335D01*
X282001D02*
X284667Y257001D01*
X291332D02*
Y264999D01*
X287333Y261000D01*
X292665D01*
X303667Y263666D02*
X302334Y264999D01*
X299668D01*
X298335Y263666D01*
Y258334D01*
X299668Y257001D01*
X302334D01*
X303667Y258334D01*
X311665Y264999D02*
X306333D01*
Y261000D01*
X308999Y262333D01*
X310332D01*
X311665Y261000D01*
Y258334D01*
X310332Y257001D01*
X307666D01*
X306333Y258334D01*
X313335Y252999D02*
Y246334D01*
X314668Y245001D01*
X317334D01*
X318667Y246334D01*
Y252999D01*
X321333Y251666D02*
X322666Y252999D01*
X325332D01*
X326665Y251666D01*
Y250333D01*
X325332Y249000D01*
X323999D01*
X325332D01*
X326665Y247667D01*
Y246334D01*
X325332Y245001D01*
X322666D01*
X321333Y246334D01*
X427667Y262666D02*
X426334Y263999D01*
X423668D01*
X422336Y262666D01*
Y257334D01*
X423668Y256001D01*
X426334D01*
X427667Y257334D01*
X430333D02*
X431666Y256001D01*
X434332D01*
X435664Y257334D01*
Y262666D01*
X434332Y263999D01*
X431666D01*
X430333Y262666D01*
Y261333D01*
X431666Y260000D01*
X435664D01*
X427667Y283666D02*
X426334Y284999D01*
X423668D01*
X422336Y283666D01*
Y278334D01*
X423668Y277001D01*
X426334D01*
X427667Y278334D01*
X430333Y283666D02*
X431666Y284999D01*
X434332D01*
X435664Y283666D01*
Y282333D01*
X434332Y281000D01*
X435664Y279667D01*
Y278334D01*
X434332Y277001D01*
X431666D01*
X430333Y278334D01*
Y279667D01*
X431666Y281000D01*
X430333Y282333D01*
Y283666D01*
X431666Y281000D02*
X434332D01*
X426667Y302666D02*
X425334Y303999D01*
X422668D01*
X421335Y302666D01*
Y297334D01*
X422668Y296001D01*
X425334D01*
X426667Y297334D01*
X429333Y303999D02*
X434664D01*
Y302666D01*
X429333Y297334D01*
Y296001D01*
X380668Y89001D02*
Y96999D01*
X384667D01*
X386000Y95666D01*
Y93000D01*
X384667Y91667D01*
X380668D01*
X383334D02*
X386000Y89001D01*
X388666D02*
X391332D01*
X389999D01*
Y96999D01*
X388666Y95666D01*
X379336Y71001D02*
Y78999D01*
X383334D01*
X384667Y77666D01*
Y75000D01*
X383334Y73667D01*
X379336D01*
X382001D02*
X384667Y71001D01*
X392664D02*
X387333D01*
X392664Y76333D01*
Y77666D01*
X391332Y78999D01*
X388666D01*
X387333Y77666D01*
X278335Y83001D02*
Y90999D01*
X282334D01*
X283667Y89666D01*
Y87000D01*
X282334Y85667D01*
X278335D01*
X281001D02*
X283667Y83001D01*
X291665Y90999D02*
X288999Y89666D01*
X286333Y87000D01*
Y84334D01*
X287666Y83001D01*
X290332D01*
X291665Y84334D01*
Y85667D01*
X290332Y87000D01*
X286333D01*
X303667Y52666D02*
X302334Y53999D01*
X299668D01*
X298335Y52666D01*
Y47334D01*
X299668Y46001D01*
X302334D01*
X303667Y47334D01*
X311665Y53999D02*
X308999Y52666D01*
X306333Y50000D01*
Y47334D01*
X307666Y46001D01*
X310332D01*
X311665Y47334D01*
Y48667D01*
X310332Y50000D01*
X306333D01*
X326668Y95666D02*
X325336Y96999D01*
X322670D01*
X321337Y95666D01*
Y94333D01*
X322670Y93000D01*
X325336D01*
X326668Y91667D01*
Y90334D01*
X325336Y89001D01*
X322670D01*
X321337Y90334D01*
X329334Y96999D02*
Y89001D01*
X332000Y91667D01*
X334666Y89001D01*
Y96999D01*
X342663Y89001D02*
X337332D01*
X342663Y94333D01*
Y95666D01*
X341330Y96999D01*
X338665D01*
X337332Y95666D01*
X256336Y136001D02*
Y143999D01*
X260334D01*
X261667Y142666D01*
Y140000D01*
X260334Y138667D01*
X256336D01*
X259001D02*
X261667Y136001D01*
X269664Y143999D02*
X264333D01*
Y140000D01*
X266999Y141333D01*
X268332D01*
X269664Y140000D01*
Y137334D01*
X268332Y136001D01*
X265666D01*
X264333Y137334D01*
X248335Y119001D02*
Y126999D01*
X252334D01*
X253667Y125666D01*
Y123000D01*
X252334Y121667D01*
X248335D01*
X251001D02*
X253667Y119001D01*
X256333Y125666D02*
X257666Y126999D01*
X260332D01*
X261665Y125666D01*
Y124333D01*
X260332Y123000D01*
X258999D01*
X260332D01*
X261665Y121667D01*
Y120334D01*
X260332Y119001D01*
X257666D01*
X256333Y120334D01*
X180003Y87001D02*
Y94999D01*
X184002D01*
X185335Y93666D01*
Y91000D01*
X184002Y89667D01*
X180003D01*
X182669D02*
X185335Y87001D01*
X188001D02*
X190666D01*
X189334D01*
Y94999D01*
X188001Y93666D01*
X194665D02*
X195998Y94999D01*
X198664D01*
X199997Y93666D01*
Y88334D01*
X198664Y87001D01*
X195998D01*
X194665Y88334D01*
Y93666D01*
X160336Y87001D02*
Y94999D01*
X164335D01*
X165668Y93666D01*
Y91000D01*
X164335Y89667D01*
X160336D01*
X163002D02*
X165668Y87001D01*
X168333D02*
X170999D01*
X169667D01*
Y94999D01*
X168333Y93666D01*
X174998Y87001D02*
X177664D01*
X176331D01*
Y94999D01*
X174998Y93666D01*
X151667Y55334D02*
Y60666D01*
X150334Y61999D01*
X147668D01*
X146335Y60666D01*
Y55334D01*
X147668Y54001D01*
X150334D01*
X149001Y56667D02*
X151667Y54001D01*
X150334D02*
X151667Y55334D01*
X159664Y54001D02*
X154333D01*
X159664Y59333D01*
Y60666D01*
X158332Y61999D01*
X155666D01*
X154333Y60666D01*
X139335Y106001D02*
Y113999D01*
X143334D01*
X144667Y112666D01*
Y110000D01*
X143334Y108667D01*
X139335D01*
X142001D02*
X144667Y106001D01*
X147333Y113999D02*
X152664D01*
Y112666D01*
X147333Y107334D01*
Y106001D01*
X93336D02*
Y113999D01*
X97334D01*
X98667Y112666D01*
Y110000D01*
X97334Y108667D01*
X93336D01*
X96001D02*
X98667Y106001D01*
X101333Y112666D02*
X102666Y113999D01*
X105332D01*
X106664Y112666D01*
Y111333D01*
X105332Y110000D01*
X106664Y108667D01*
Y107334D01*
X105332Y106001D01*
X102666D01*
X101333Y107334D01*
Y108667D01*
X102666Y110000D01*
X101333Y111333D01*
Y112666D01*
X102666Y110000D02*
X105332D01*
X112000Y55334D02*
Y60666D01*
X110667Y61999D01*
X108001D01*
X106668Y60666D01*
Y55334D01*
X108001Y54001D01*
X110667D01*
X109334Y56667D02*
X112000Y54001D01*
X110667D02*
X112000Y55334D01*
X114666Y54001D02*
X117332D01*
X115999D01*
Y61999D01*
X114666Y60666D01*
X63335Y85001D02*
Y92999D01*
X67334D01*
X68667Y91666D01*
Y89000D01*
X67334Y87667D01*
X63335D01*
X66001D02*
X68667Y85001D01*
X71333Y86334D02*
X72666Y85001D01*
X75332D01*
X76665Y86334D01*
Y91666D01*
X75332Y92999D01*
X72666D01*
X71333Y91666D01*
Y90333D01*
X72666Y89000D01*
X76665D01*
X27338Y93999D02*
Y86001D01*
X32670D01*
X40667Y93999D02*
X35336D01*
Y86001D01*
X40667D01*
X35336Y90000D02*
X38001D01*
X43333Y93999D02*
Y86001D01*
X47332D01*
X48664Y87334D01*
Y92666D01*
X47332Y93999D01*
X43333D01*
X51330Y92666D02*
X52663Y93999D01*
X55329D01*
X56662Y92666D01*
Y91333D01*
X55329Y90000D01*
X53996D01*
X55329D01*
X56662Y88667D01*
Y87334D01*
X55329Y86001D01*
X52663D01*
X51330Y87334D01*
X80668Y178999D02*
Y171001D01*
X84667D01*
X86000Y172334D01*
Y177666D01*
X84667Y178999D01*
X80668D01*
X88666Y171001D02*
X91332D01*
X89999D01*
Y178999D01*
X88666Y177666D01*
X165835Y211499D02*
Y204834D01*
X167168Y203501D01*
X169834D01*
X171167Y204834D01*
Y211499D01*
X179165Y203501D02*
X173833D01*
X179165Y208833D01*
Y210166D01*
X177832Y211499D01*
X175166D01*
X173833Y210166D01*
X63668Y312999D02*
Y306334D01*
X65001Y305001D01*
X67667D01*
X69000Y306334D01*
Y312999D01*
X71666Y305001D02*
X74332D01*
X72999D01*
Y312999D01*
X71666Y311666D01*
X-30332Y226001D02*
Y233999D01*
X-26333D01*
X-25000Y232666D01*
Y230000D01*
X-26333Y228667D01*
X-30332D01*
X-22334Y226001D02*
X-19668D01*
X-21001D01*
Y233999D01*
X-22334Y232666D01*
X218667Y112666D02*
X217334Y113999D01*
X214668D01*
X213335Y112666D01*
Y107334D01*
X214668Y106001D01*
X217334D01*
X218667Y107334D01*
X225332Y106001D02*
Y113999D01*
X221333Y110000D01*
X226665D01*
X198667Y112666D02*
X197334Y113999D01*
X194668D01*
X193335Y112666D01*
Y107334D01*
X194668Y106001D01*
X197334D01*
X198667Y107334D01*
X201333Y112666D02*
X202666Y113999D01*
X205332D01*
X206665Y112666D01*
Y111333D01*
X205332Y110000D01*
X203999D01*
X205332D01*
X206665Y108667D01*
Y107334D01*
X205332Y106001D01*
X202666D01*
X201333Y107334D01*
X189667Y272666D02*
X188334Y273999D01*
X185668D01*
X184335Y272666D01*
Y267334D01*
X185668Y266001D01*
X188334D01*
X189667Y267334D01*
X197665Y266001D02*
X192333D01*
X197665Y271333D01*
Y272666D01*
X196332Y273999D01*
X193666D01*
X192333Y272666D01*
X190000Y295666D02*
X188667Y296999D01*
X186001D01*
X184668Y295666D01*
Y290334D01*
X186001Y289001D01*
X188667D01*
X190000Y290334D01*
X192666Y289001D02*
X195332D01*
X193999D01*
Y296999D01*
X192666Y295666D01*
D16*
X422040Y247589D02*
X413576Y239125D01*
Y247589D02*
X422040Y239125D01*
X417808Y247589D02*
Y239125D01*
X413576Y243357D02*
X422040D01*
M02*
